<?xml version="1.0" encoding="UTF-8" standalone="no"?>
<!-- Created with Inkscape (http://www.inkscape.org/) -->

<svg
   width="64"
   height="64"
   viewBox="0 0 16.933333 16.933333"
   version="1.1"
   id="svg1"
   inkscape:version="1.4.4 (dcaf3e7d9e, 2026-05-05)"
   sodipodi:docname="logo.svg"
   xmlns:inkscape="http://www.inkscape.org/namespaces/inkscape"
   xmlns:sodipodi="http://sodipodi.sourceforge.net/DTD/sodipodi-0.dtd"
   xmlns:xlink="http://www.w3.org/1999/xlink"
   xmlns="http://www.w3.org/2000/svg"
   xmlns:svg="http://www.w3.org/2000/svg">
  <sodipodi:namedview
     id="namedview1"
     pagecolor="#ffffff"
     bordercolor="#000000"
     borderopacity="0.25"
     inkscape:showpageshadow="2"
     inkscape:pageopacity="0.0"
     inkscape:pagecheckerboard="0"
     inkscape:deskcolor="#d1d1d1"
     inkscape:document-units="px"
     inkscape:zoom="8.2528619"
     inkscape:cx="23.567582"
     inkscape:cy="27.1421"
     inkscape:window-width="2560"
     inkscape:window-height="1366"
     inkscape:window-x="0"
     inkscape:window-y="0"
     inkscape:window-maximized="1"
     inkscape:current-layer="layer1" />
  <defs
     id="defs1" />
  <g
     inkscape:label="Layer 1"
     inkscape:groupmode="layer"
     id="layer1">
    <g
       id="g5"
       transform="matrix(0.06604153,0,0,0.06604153,-16.979638,-15.569613)">
      <path
         style="fill:#333333;stroke-width:0.227692"
         sodipodi:type="inkscape:offset"
         inkscape:radius="10.138021"
         inkscape:original="M 301.88477 303.38477 C 282.69473 303.38477 267.24414 314.82542 267.24414 329.03711 L 267.24414 398.87695 C 267.24414 413.08864 282.69473 424.5293 301.88477 424.5293 C 321.07482 424.5293 336.52344 413.08864 336.52344 398.87695 L 336.52344 329.03711 C 336.52344 314.82542 321.07482 303.38477 301.88477 303.38477 z M 383.13086 303.38477 C 363.94081 303.38477 348.49219 314.82542 348.49219 329.03711 L 348.49219 398.87695 C 348.49219 413.08864 363.94081 424.5293 383.13086 424.5293 C 402.3209 424.5293 417.77148 413.08864 417.77148 398.87695 L 417.77148 329.03711 C 417.77148 314.82542 402.3209 303.38477 383.13086 303.38477 z M 468.73242 303.38477 C 449.54237 303.38477 434.0918 314.82542 434.0918 329.03711 L 434.0918 398.87695 C 434.0918 413.08864 449.54237 424.5293 468.73242 424.5293 C 487.92246 424.5293 503.37109 413.08864 503.37109 398.87695 L 503.37109 329.03711 C 503.37109 314.82542 487.92246 303.38477 468.73242 303.38477 z "
         xlink:href="#rect5"
         id="path5"
         inkscape:href="#rect5"
         d="m 301.88477,293.24609 c -11.60971,0 -22.29698,3.37772 -30.54883,9.48828 -8.25185,6.11057 -14.23047,15.52296 -14.23047,26.30274 v 69.83984 c 0,10.77978 5.97862,20.19217 14.23047,26.30274 8.25185,6.11057 18.93912,9.48828 30.54883,9.48828 11.6097,0 22.29739,-3.37754 30.54882,-9.48828 4.06417,-3.00979 7.55622,-6.83423 10.07422,-11.21485 2.51801,4.38062 6.01005,8.20506 10.07422,11.21485 8.25143,6.11074 18.93912,9.48828 30.54883,9.48828 11.6097,0 22.29698,-3.37771 30.54883,-9.48828 5.55131,-4.1108 9.88687,-9.79807 12.25195,-16.3086 2.36508,6.51053 6.70064,12.19779 12.25195,16.3086 8.25185,6.11057 18.93912,9.48828 30.54883,9.48828 11.60971,0 22.2974,-3.37754 30.54883,-9.48828 8.25143,-6.11074 14.22852,-15.52342 14.22852,-26.30274 v -69.83984 c 0,-10.77931 -5.97709,-20.192 -14.22852,-26.30274 -8.25143,-6.11073 -18.93912,-9.48828 -30.54883,-9.48828 -11.60971,0 -22.29698,3.37771 -30.54883,9.48828 -5.55131,4.11081 -9.88687,9.79807 -12.25195,16.3086 -2.36508,-6.51053 -6.70064,-12.19779 -12.25195,-16.3086 -8.25185,-6.11056 -18.93913,-9.48828 -30.54883,-9.48828 -11.60971,0 -22.2974,3.37755 -30.54883,9.48828 -4.06417,3.00979 -7.55621,6.83423 -10.07422,11.21485 -2.518,-4.38062 -6.01005,-8.20506 -10.07422,-11.21485 -8.25143,-6.11073 -18.93912,-9.48828 -30.54882,-9.48828 z" />
      <path
         id="rect5"
         style="fill:#8bc3b7;stroke-width:0.227692"
         d="m 468.73179,303.38408 c 19.19004,0 34.63907,11.44119 34.63907,25.65288 v 69.8403 c 0,14.21169 -15.44903,25.65288 -34.63907,25.65288 -19.19005,0 -34.63908,-11.44119 -34.63908,-25.65288 v -69.8403 c 0,-14.21169 15.44903,-25.65288 34.63908,-25.65288 z m -85.60022,0 c 19.19004,0 34.63907,11.44119 34.63907,25.65288 v 69.8403 c 0,14.21169 -15.44903,25.65288 -34.63907,25.65288 -19.19005,0 -34.63908,-11.44119 -34.63908,-25.65288 v -69.8403 c 0,-14.21169 15.44903,-25.65288 34.63908,-25.65288 z m -81.24768,0 c 19.19005,0 34.63908,11.44119 34.63908,25.65288 v 69.8403 c 0,14.21169 -15.44903,25.65288 -34.63908,25.65288 -19.19004,0 -34.63907,-11.44119 -34.63907,-25.65288 v -69.8403 c 0,-14.21169 15.44903,-25.65288 34.63907,-25.65288 z" />
    </g>
  </g>
</svg>
